<svg width="34" height="14" viewBox="0 0 34 14" fill="none" xmlns="http://www.w3.org/2000/svg">
<path d="M4.012 10.1976C3.35337 10.1976 2.76632 10.0945 2.25086 9.88832C1.73541 9.67641 1.32877 9.37 1.03096 8.96909C0.733138 8.56818 0.584229 8.08136 0.584229 7.50864C0.584229 6.85 0.770365 6.31736 1.14264 5.91073C1.51491 5.49836 1.99887 5.18623 2.5945 4.97432C3.19014 4.75668 3.82014 4.61636 4.4845 4.55336C5.44668 4.46173 6.10246 4.38155 6.45182 4.31282C6.80691 4.23836 6.98446 4.11236 6.98446 3.93482C6.98446 3.92909 6.98446 3.92623 6.98446 3.92623C6.98446 3.9205 6.98446 3.91764 6.98446 3.91764C6.98446 3.64273 6.83841 3.41936 6.54632 3.24755C6.25996 3.07573 5.86477 2.98982 5.36077 2.98982C4.82814 2.98982 4.42437 3.08718 4.14946 3.28191C3.88027 3.47091 3.74568 3.76014 3.74568 4.14959H0.721683C0.721683 3.39932 0.927865 2.76932 1.34023 2.25959C1.75832 1.74414 2.31959 1.35468 3.02405 1.09123C3.7285 0.827772 4.516 0.696045 5.38655 0.696045C6.21127 0.696045 6.97587 0.819181 7.68032 1.06545C8.3905 1.31173 8.96323 1.68686 9.3985 2.19086C9.8395 2.69486 10.06 3.33632 10.06 4.11523C10.06 4.2355 10.06 4.35577 10.06 4.47605C10.06 4.59632 10.06 4.71659 10.06 4.83686V7.86086C10.06 8.10141 10.0657 8.33623 10.0772 8.56532C10.0886 8.78868 10.1201 8.99486 10.1717 9.18386C10.2347 9.39005 10.312 9.56473 10.4036 9.70791C10.501 9.85109 10.5783 9.94845 10.6356 10H7.63737C7.59155 9.95418 7.52282 9.86541 7.43118 9.73368C7.34527 9.60195 7.27082 9.45018 7.20782 9.27836C7.13337 9.04927 7.07896 8.82877 7.04459 8.61686C7.01023 8.39923 6.99305 8.1415 6.99305 7.84368L7.64596 8.29041C7.48559 8.68559 7.22214 9.02636 6.85559 9.31273C6.49477 9.59909 6.06809 9.81959 5.57555 9.97423C5.083 10.1231 4.56182 10.1976 4.012 10.1976ZM4.88827 7.97255C5.24337 7.97255 5.58414 7.90095 5.91059 7.75777C6.23705 7.61459 6.50623 7.3855 6.71814 7.0705C6.93005 6.7555 7.036 6.33455 7.036 5.80764V5.1805L7.80918 5.86777C7.43118 5.9995 7.00164 6.11118 6.52055 6.20282C6.03946 6.28873 5.56982 6.35459 5.11164 6.40041C4.62482 6.45195 4.26114 6.535 4.02059 6.64955C3.78005 6.76409 3.65977 6.95309 3.65977 7.21655C3.65977 7.46854 3.76287 7.65755 3.96905 7.78355C4.18096 7.90955 4.48737 7.97255 4.88827 7.97255Z" fill="#41197F"/>
<path d="M11.8433 13.7542V0.876454H14.9102V13.7542H11.8433ZM17.6679 10.2148C16.9463 10.2148 16.2848 10.0172 15.6834 9.622C15.0878 9.22109 14.6124 8.68559 14.2573 8.0155C13.9022 7.33968 13.7247 6.58655 13.7247 5.75609C13.7247 5.73318 13.7247 5.71027 13.7247 5.68736C13.7247 5.65873 13.7247 5.63009 13.7247 5.60145L14.9102 5.57568C14.9102 5.59286 14.9102 5.61291 14.9102 5.63582C14.9102 5.653 14.9102 5.66732 14.9102 5.67877C14.9102 6.07968 15.0019 6.42618 15.1851 6.71827C15.3741 7.00464 15.6147 7.22514 15.9068 7.37977C16.2046 7.52868 16.511 7.60314 16.826 7.60314C17.3357 7.60314 17.7882 7.42559 18.1834 7.0705C18.5786 6.71541 18.7761 6.15414 18.7761 5.38668C18.7761 4.61923 18.5786 4.06655 18.1834 3.72864C17.7939 3.385 17.3415 3.21318 16.826 3.21318C16.5167 3.21318 16.2132 3.28764 15.9154 3.43654C15.6233 3.57973 15.3827 3.79164 15.1937 4.07227C15.0047 4.34718 14.9102 4.68795 14.9102 5.09459L13.7247 5.01727C13.7247 4.18109 13.9022 3.43941 14.2573 2.79223C14.6124 2.14505 15.0878 1.63532 15.6834 1.26304C16.2848 0.885045 16.9463 0.696045 17.6679 0.696045C18.4067 0.696045 19.0997 0.876454 19.7469 1.23727C20.3998 1.59809 20.9267 2.12786 21.3276 2.82659C21.7343 3.52532 21.9376 4.37868 21.9376 5.38668C21.9376 6.44623 21.74 7.33395 21.3448 8.04986C20.9496 8.76577 20.4285 9.307 19.7813 9.67355C19.1341 10.0344 18.4296 10.2148 17.6679 10.2148Z" fill="#41197F"/>
<path d="M23.4041 13.7542V0.876454H26.4711V13.7542H23.4041ZM29.2287 10.2148C28.5071 10.2148 27.8456 10.0172 27.2442 9.622C26.6486 9.22109 26.1732 8.68559 25.8181 8.0155C25.4631 7.33968 25.2855 6.58655 25.2855 5.75609C25.2855 5.73318 25.2855 5.71027 25.2855 5.68736C25.2855 5.65873 25.2855 5.63009 25.2855 5.60145L26.4711 5.57568C26.4711 5.59286 26.4711 5.61291 26.4711 5.63582C26.4711 5.653 26.4711 5.66732 26.4711 5.67877C26.4711 6.07968 26.5627 6.42618 26.746 6.71827C26.935 7.00464 27.1755 7.22514 27.4676 7.37977C27.7654 7.52868 28.0718 7.60314 28.3868 7.60314C28.8966 7.60314 29.349 7.42559 29.7442 7.0705C30.1394 6.71541 30.337 6.15414 30.337 5.38668C30.337 4.61923 30.1394 4.06655 29.7442 3.72864C29.3547 3.385 28.9023 3.21318 28.3868 3.21318C28.0776 3.21318 27.774 3.28764 27.4762 3.43654C27.1841 3.57973 26.9436 3.79164 26.7546 4.07227C26.5656 4.34718 26.4711 4.68795 26.4711 5.09459L25.2855 5.01727C25.2855 4.18109 25.4631 3.43941 25.8181 2.79223C26.1732 2.14505 26.6486 1.63532 27.2442 1.26304C27.8456 0.885045 28.5071 0.696045 29.2287 0.696045C29.9676 0.696045 30.6606 0.876454 31.3077 1.23727C31.9606 1.59809 32.4876 2.12786 32.8885 2.82659C33.2951 3.52532 33.4984 4.37868 33.4984 5.38668C33.4984 6.44623 33.3008 7.33395 32.9056 8.04986C32.5105 8.76577 31.9893 9.307 31.3421 9.67355C30.6949 10.0344 29.9905 10.2148 29.2287 10.2148Z" fill="#41197F"/>
</svg>
