<svg width="72" height="15" viewBox="0 0 72 15" fill="none" xmlns="http://www.w3.org/2000/svg">
<path d="M0.367249 14L3.14717 0.941433H7.5561C8.61258 0.941433 9.39757 1.17752 9.91106 1.64969C10.4246 2.11596 10.6813 2.73864 10.6813 3.51773C10.6813 3.984 10.6075 4.45618 10.46 4.93425C10.3124 5.41233 10.1029 5.85499 9.83138 6.26224C9.55988 6.66949 9.23526 7.00591 8.85752 7.27151C8.48569 7.53711 8.07549 7.69352 7.62692 7.74074C7.89842 7.76434 8.14926 7.83222 8.37945 7.94436C8.61553 8.0506 8.8044 8.21881 8.94606 8.449C9.09361 8.67328 9.16739 8.97134 9.16739 9.34318C9.16739 9.50253 9.14083 9.72387 9.08771 10.0072C9.03459 10.2905 8.96967 10.6062 8.89294 10.9545C8.81621 11.2968 8.73948 11.6421 8.66275 11.9903C8.58602 12.3326 8.5211 12.6484 8.46798 12.9376C8.41486 13.2268 8.3883 13.454 8.3883 13.6193C8.3883 13.7078 8.39125 13.7875 8.39715 13.8583C8.40896 13.9233 8.42371 13.9705 8.44142 14H6.91866C6.88915 13.9233 6.87439 13.8052 6.87439 13.6459C6.87439 13.4924 6.898 13.2829 6.94522 13.0173C6.99834 12.7458 7.06031 12.4536 7.13114 12.1408C7.20787 11.8221 7.28164 11.5063 7.35247 11.1935C7.4233 10.8748 7.48232 10.5826 7.52954 10.317C7.58265 10.0514 7.60921 9.84486 7.60921 9.69731C7.60921 9.24874 7.44986 8.92412 7.13114 8.72345C6.81242 8.52277 6.37271 8.42244 5.812 8.42244H2.36809L3.14717 7.90009L1.84574 14H0.367249ZM3.20914 7.59908L2.61598 7.09445H6.10416C6.65897 7.09445 7.16065 6.9528 7.60921 6.66949C8.05778 6.38619 8.41486 6.0114 8.68046 5.54513C8.94606 5.07886 9.07886 4.56832 9.07886 4.01351C9.07886 3.47051 8.92245 3.04556 8.60963 2.73864C8.29682 2.42583 7.78923 2.26942 7.08687 2.26942H3.69607L4.51943 1.41951L3.20914 7.59908Z" fill="#41197F"/>
<path d="M15.3775 2.26942L16.2363 1.41066L14.988 7.30693L14.7224 6.78458H19.7333L19.4589 8.11257H14.4479L14.926 7.59023L13.6689 13.5308L13.1642 12.672H19.4677L19.1844 14H12.0487L14.8286 0.941433H21.9644L21.6811 2.26942H15.3775Z" fill="#41197F"/>
<path d="M32.3496 9.45827C32.2375 9.98356 32.0309 10.5236 31.7299 11.0784C31.4348 11.6273 31.0453 12.1379 30.5613 12.61C30.0832 13.0763 29.5225 13.454 28.8792 13.7432C28.2358 14.0325 27.5128 14.1771 26.7101 14.1771C25.7835 14.1771 25.0221 13.9734 24.426 13.5662C23.8358 13.1589 23.399 12.6012 23.1157 11.8929C22.8383 11.1788 22.6996 10.3672 22.6996 9.45827C22.6996 8.35456 22.8501 7.28627 23.1511 6.25339C23.458 5.22051 23.8977 4.29387 24.4702 3.47346C25.0487 2.64716 25.7451 1.99202 26.5596 1.50804C27.38 1.02406 28.3037 0.782074 29.3307 0.782074C30.2868 0.782074 31.0541 0.976846 31.6325 1.36639C32.2169 1.75003 32.6389 2.23991 32.8986 2.83603C33.1582 3.43215 33.2881 4.04597 33.2881 4.67751C33.2881 4.83687 33.2792 4.98442 33.2615 5.12017C33.2438 5.25592 33.2202 5.37692 33.1907 5.48315H31.6768C31.6945 5.39462 31.7122 5.27658 31.7299 5.12902C31.7535 4.97557 31.7653 4.83392 31.7653 4.70407C31.7653 4.23189 31.6709 3.80399 31.482 3.42034C31.2991 3.0367 31.0158 2.72979 30.6321 2.49961C30.2485 2.26942 29.7586 2.15433 29.1625 2.15433C28.3657 2.15433 27.6604 2.36681 27.0465 2.79176C26.4327 3.21672 25.9163 3.78333 25.4972 4.49159C25.0782 5.19985 24.7624 5.98779 24.5499 6.85541C24.3374 7.71713 24.2312 8.5877 24.2312 9.46712C24.2312 10.5531 24.4466 11.3824 24.8775 11.9549C25.3084 12.5274 25.9694 12.8137 26.8606 12.8137C27.3859 12.8137 27.8699 12.7192 28.3126 12.5303C28.7611 12.3356 29.1566 12.0759 29.4989 11.7513C29.8471 11.4266 30.1334 11.0666 30.3577 10.6712C30.5879 10.2698 30.7472 9.86552 30.8357 9.45827H32.3496Z" fill="#41197F"/>
<path d="M34.5652 14L37.3362 0.941433H38.8324L36.0702 14H34.5652Z" fill="#41197F"/>
<path d="M41.31 14H39.7961L42.576 0.941433H46.1527C47.0439 0.941433 47.764 1.09489 48.3129 1.4018C48.8618 1.70871 49.2632 2.12187 49.5169 2.64126C49.7766 3.15475 49.9065 3.72726 49.9065 4.35879C49.9065 5.13788 49.7766 5.84024 49.5169 6.46587C49.2572 7.08559 48.8884 7.61974 48.4103 8.06831C47.9322 8.51097 47.3627 8.85034 46.7016 9.08643C46.0465 9.32252 45.3205 9.44056 44.5237 9.44056H42.2838L41.31 14ZM42.3989 8.88281L41.8854 8.11257H44.5326C45.3176 8.11257 45.9993 7.95616 46.5777 7.64335C47.1561 7.33053 47.6046 6.89377 47.9234 6.33307C48.2421 5.77236 48.4014 5.11722 48.4014 4.36764C48.4014 3.91908 48.31 3.54134 48.127 3.23443C47.9499 2.92161 47.6666 2.68257 47.2771 2.51731C46.8934 2.35205 46.3917 2.26942 45.772 2.26942H43.1249L43.9837 1.41066L42.3989 8.88281Z" fill="#41197F"/>
<path d="M54.4605 2.26942L55.3193 1.41066L54.071 7.30693L53.8054 6.78458H58.8163L58.5419 8.11257H53.5309L54.009 7.59023L52.7518 13.5308L52.2472 12.672H58.5507L58.2674 14H51.1317L53.9116 0.941433H61.0473L60.764 2.26942H54.4605Z" fill="#41197F"/>
<path d="M65.7298 14.1771C64.9802 14.1771 64.328 14.0708 63.7732 13.8583C63.2184 13.64 62.7905 13.3212 62.4895 12.9022C62.1885 12.4772 62.0379 11.9519 62.0379 11.3263C62.0379 11.0371 62.0586 10.7715 62.0999 10.5295C62.1471 10.2875 62.2091 10.0072 62.2858 9.68845H63.7909C63.7142 9.99537 63.6581 10.2551 63.6227 10.4675C63.5932 10.68 63.5784 10.8895 63.5784 11.0961C63.5784 11.7218 63.7732 12.1644 64.1627 12.4241C64.5582 12.6838 65.1307 12.8137 65.8803 12.8137C66.5177 12.8137 67.0872 12.7281 67.5889 12.5569C68.0906 12.3798 68.4861 12.1113 68.7753 11.7513C69.0645 11.3853 69.2091 10.9161 69.2091 10.3436C69.2091 9.78289 68.9789 9.32252 68.5185 8.96249C68.0641 8.60245 67.4443 8.29554 66.6593 8.04175C66.0632 7.84107 65.5261 7.59318 65.048 7.29807C64.5759 6.99706 64.2011 6.63408 63.9237 6.20912C63.6522 5.78417 63.5164 5.29133 63.5164 4.73063C63.5164 4.09909 63.6374 3.53839 63.8794 3.04851C64.1273 2.55863 64.4696 2.14548 64.9064 1.80905C65.3432 1.47263 65.8507 1.21883 66.4292 1.04767C67.0076 0.870606 67.6332 0.782074 68.3061 0.782074C69.0556 0.782074 69.7049 0.888313 70.2538 1.10079C70.8086 1.30737 71.2365 1.61428 71.5375 2.02153C71.8385 2.42878 71.989 2.93342 71.989 3.53544C71.989 3.79513 71.9683 4.05483 71.927 4.31452C71.8857 4.57422 71.8326 4.84572 71.7677 5.12902H70.2538C70.3187 4.85752 70.3659 4.61553 70.3954 4.40306C70.4308 4.18468 70.4485 3.96925 70.4485 3.75677C70.4485 3.15475 70.2508 2.73569 69.8554 2.49961C69.4599 2.26352 68.8904 2.14548 68.1467 2.14548C67.5447 2.14548 67.0076 2.22515 66.5354 2.38451C66.0632 2.54387 65.6914 2.79471 65.4199 3.13704C65.1484 3.47346 65.0126 3.91318 65.0126 4.45618C65.0126 5.0759 65.2546 5.56283 65.7386 5.91696C66.2226 6.26519 66.8689 6.58096 67.6775 6.86426C68.309 7.08264 68.852 7.33939 69.3065 7.6345C69.7609 7.92961 70.1092 8.27783 70.3512 8.67918C70.5991 9.08053 70.723 9.54975 70.723 10.0868C70.723 10.9545 70.5017 11.6952 70.059 12.309C69.6222 12.9169 69.0261 13.3803 68.2706 13.699C67.5211 14.0177 66.6741 14.1771 65.7298 14.1771Z" fill="#41197F"/>
</svg>
